<svg xmlns="http://www.w3.org/2000/svg" width="481" height="507" fill="none" viewBox="0 0 481 507">
    <path fill="#FFB800" fill-opacity=".58" d="M443.472 273.201C443.472 402.325 340.322 507 213.081 507 85.839 507 0 402.325 0 273.201 0 144.078 169.393 60.995 287.268 26c-25.554 79.472 156.204 118.078 156.204 247.201z"/>
    <mask id="a" fill="#fff">
        <path fill-rule="evenodd" d="M387.262 188.484c-1.348-4.431-3.174-9.022-5.513-13.771-4.311-11.15-8.478-23.184-12.754-35.537C346.727 74.847 321.473 1.895 257.119.419c-65.183-7.497-100.702 87.134-122.251 166.615-4.624 7.794-8.023 15.1-10.323 21.944-8.675 17.806-13.755 37.593-14.225 58.492-1.806 80.297 65.948 155.136 145.458 148.442 74.119 7.451 153.182-64.063 148.729-142.055-2.592-24.159-8.445-46.149-17.245-65.373z" clip-rule="evenodd"/>
    </mask>
    <path fill="#407408" fill-rule="evenodd" d="M387.262 188.484c-1.348-4.431-3.174-9.022-5.513-13.771-4.311-11.15-8.478-23.184-12.754-35.537C346.727 74.847 321.473 1.895 257.119.419c-65.183-7.497-100.702 87.134-122.251 166.615-4.624 7.794-8.023 15.1-10.323 21.944-8.675 17.806-13.755 37.593-14.225 58.492-1.806 80.297 65.948 155.136 145.458 148.442 74.119 7.451 153.182-64.063 148.729-142.055-2.592-24.159-8.445-46.149-17.245-65.373z" clip-rule="evenodd"/>
    <path fill="#000" d="M381.749 174.713l-7.461 2.885.128.331.156.318 7.177-3.534zm5.513 13.771l-7.654 2.329.156.513.224.488 7.274-3.33zm-18.267-49.308l7.56-2.617-7.56 2.617zM257.119.419l-.914 7.947.364.042.367.009.183-7.998zM134.868 167.034l6.88 4.082.556-.937.285-1.051-7.721-2.094zm-10.323 21.944l7.191 3.504.227-.465.165-.49-7.583-2.549zM110.32 247.47l7.998.18-7.998-.18zm145.458 148.442l.8-7.96-.735-.074-.736.062.671 7.972zm148.729-142.055l7.987-.456-.012-.199-.021-.198-7.954.853zm-29.935-75.61c2.166 4.398 3.825 8.586 5.036 12.566l15.307-4.657c-1.485-4.883-3.477-9.876-5.989-14.977l-14.354 7.068zm-13.137-36.454c4.266 12.323 8.48 24.498 12.853 35.805l14.923-5.771c-4.251-10.991-8.369-22.886-12.656-35.268l-15.12 5.234zM256.936 8.417c28.531.654 48.841 16.922 65.188 42.16 16.511 25.49 28.094 58.811 39.311 91.216l15.12-5.234c-11.051-31.924-23.23-67.243-41.001-94.68-17.936-27.69-42.429-48.637-78.251-49.458l-.367 15.996zM142.589 169.128c10.744-39.628 24.78-82.239 43.89-113.883 19.263-31.896 41.984-50.07 69.726-46.879l1.828-15.895c-37.441-4.306-65.07 21.088-85.25 54.503-20.333 33.668-34.831 78.113-45.637 117.967l15.443 4.187zm-10.461 22.399c2.092-6.224 5.234-13.018 9.62-20.411l-13.761-8.163c-4.861 8.194-8.516 16.012-11.025 23.476l15.166 5.098zm-13.81 56.123c.443-19.704 5.23-38.361 13.418-55.168l-14.383-7.008c-9.162 18.805-14.534 39.722-15.031 61.816l15.996.36zm136.789 140.29c-73.938 6.225-138.508-63.868-136.789-140.29l-15.996-.36c-1.893 84.172 69.045 163.757 154.127 156.593l-1.342-15.943zM396.52 254.313c2.063 36.13-15.238 71.325-42.385 96.776-27.17 25.474-63.271 40.309-97.557 36.863l-1.6 15.92c39.834 4.004 80.324-13.193 110.101-41.111 29.801-27.94 49.805-67.498 47.415-109.36l-15.974.912zm-16.532-62.499c8.399 18.349 14.054 39.488 16.564 62.896l15.909-1.706c-2.672-24.909-8.725-47.751-17.925-67.85l-14.548 6.66z" mask="url(#a)"/>
    <mask id="c" fill="#fff">
        <path fill-rule="evenodd" d="M373.869 186.09c-1.234-4.057-2.905-8.258-5.046-12.606-3.946-10.204-7.759-21.219-11.673-32.524-20.381-58.875-43.494-125.643-102.391-126.994-59.657-6.861-92.165 79.748-111.888 152.491-4.231 7.132-7.342 13.819-9.447 20.082-7.94 16.297-12.589 34.407-13.02 53.534-1.653 73.49 60.358 141.984 133.127 135.858 67.836 6.819 140.196-58.632 136.12-130.012-2.371-22.11-7.729-42.236-15.782-59.829z" clip-rule="evenodd"/>
    </mask>
    <path fill="#C4D804" fill-rule="evenodd" d="M373.869 186.09c-1.234-4.057-2.905-8.258-5.046-12.606-3.946-10.204-7.759-21.219-11.673-32.524-20.381-58.875-43.494-125.643-102.391-126.994-59.657-6.861-92.165 79.748-111.888 152.491-4.231 7.132-7.342 13.819-9.447 20.082-7.94 16.297-12.589 34.407-13.02 53.534-1.653 73.49 60.358 141.984 133.127 135.858 67.836 6.819 140.196-58.632 136.12-130.012-2.371-22.11-7.729-42.236-15.782-59.829z" clip-rule="evenodd" filter="url(#b)"/>
    <path fill="#000" d="M368.823 173.484l-5.596 2.164.096.248.117.239 5.383-2.651zm5.046 12.606l-5.741 1.746.118.385.167.366 5.456-2.497zm-16.719-45.13l-5.67 1.963 5.67-1.963zM254.759 13.966l-.686 5.96.273.032.275.006.138-5.998zM142.871 166.457l5.161 3.061.416-.703.214-.788-5.791-1.57zm-9.447 20.082l5.393 2.628.17-.348.124-.368-5.687-1.912zm-13.02 53.534l5.999.135-5.999-.135zm133.127 135.858l.6-5.97-.551-.056-.552.047.503 5.979zm136.12-130.012l5.99-.342-.008-.149-.016-.149-5.966.64zm-26.211-69.784c2.011 4.083 3.558 7.983 4.688 11.701l11.481-3.492c-1.337-4.395-3.133-8.899-5.403-13.511l-10.766 5.302zm-11.96-33.212c3.906 11.283 7.755 22.402 11.747 32.725l11.192-4.328c-3.9-10.086-7.677-20.995-11.599-32.323l-11.34 3.926zM254.621 19.964c26.715.613 45.649 15.888 60.741 39.19 15.216 23.49 25.866 54.15 36.118 83.769l11.34-3.926c-10.128-29.257-21.225-61.417-37.386-86.368-16.283-25.14-38.355-43.923-70.538-44.661l-.275 11.996zM148.662 168.027c9.838-36.287 22.723-75.437 40.314-104.566 17.705-29.317 38.906-46.547 65.097-43.534l1.371-11.922c-33.466-3.849-58.347 18.796-76.741 49.253-18.508 30.646-31.738 71.172-41.623 107.629l11.582 3.14zm-9.551 20.424c1.949-5.798 4.867-12.101 8.921-18.933l-10.321-6.123c-4.41 7.433-7.713 14.504-9.975 21.232l11.375 3.824zm-12.708 51.757c.41-18.231 4.84-35.493 12.414-51.041l-10.787-5.256c-8.305 17.046-13.174 36.004-13.624 56.027l11.997.27zm126.625 129.744c-68.59 5.775-128.213-59.16-126.625-129.744l-11.997-.27c-1.718 76.396 62.68 148.45 139.629 141.972l-1.007-11.958zm130.633-123.691c1.915 33.54-14.143 66.112-39.207 89.611-25.082 23.517-58.485 37.289-90.323 34.089l-1.2 11.94c35.998 3.618 72.693-11.925 99.731-37.274 27.055-25.367 45.14-61.211 42.979-99.05l-11.98.684zm-15.248-57.674c7.753 16.937 12.961 36.425 15.272 57.972l11.932-1.28c-2.432-22.673-7.939-43.437-16.293-61.687l-10.911 4.995z" mask="url(#c)"/>
    <ellipse cx="259.043" cy="250.827" fill="#9E6109" filter="url(#d)" rx="73.817" ry="74.541"/>
    <path stroke="#000" stroke-width="5" d="M330.36 250.827c0 39.811-31.952 72.041-71.316 72.041-39.365 0-71.317-32.23-71.317-72.041 0-39.81 31.952-72.04 71.317-72.04 39.364 0 71.316 32.23 71.316 72.04z"/>
    <mask id="f" fill="#fff">
        <path fill-rule="evenodd" d="M476.747 222.706c0 18.903-5.223 36.198-13.871 49.513.255 2.444.382 5.024.382 7.744 0 40.75-20.589 108.216-52.459 108.216-4.222 0-8.529-.586-12.822-1.697-16.141 6.263-35.311 7.402-53.609 1.046-9.868-5.798-22.096-11.325-34.459-16.911-21.524-9.728-43.455-19.639-54.038-31.491-8.969 5.237-16.172 10.228-20.06 14.999-11.026 8.08-23.458 13.993-36.191 17.503-28.453 20.816-119.512 31.85-110.693-3.503-20.445-21.188-40.229-61.561-33.877-102.061-8.543-14.712-13.71-32.715-13.71-50.425 0-40.846 30.996-72.635 93.43-67.705 26.757 0 29.098 36.146 29.098 76.991a85.51 85.51 0 0 1-.239 6.394c2.434 3.088 4.311 6.335 5.485 9.671 2.861 8.131 7.254 17.058 11.819 26.332l1.248 2.537c120.587-36.413 154.348-33.736 164.88-12.799 2.721-8.647 7-15.314 13.725-18.976-.35-4.921-.242-10.057.386-15.378 0-5.948-.121-11.8-.237-17.463v-.004c-.708-34.39-1.273-61.834 26.129-61.834 60.414-5.078 89.683 37.23 89.683 79.301z" clip-rule="evenodd"/>
    </mask>
    <path fill="#9E6109" fill-rule="evenodd" d="M476.747 222.706c0 18.903-5.223 36.198-13.871 49.513.255 2.444.382 5.024.382 7.744 0 40.75-20.589 108.216-52.459 108.216-4.222 0-8.529-.586-12.822-1.697-16.141 6.263-35.311 7.402-53.609 1.046-9.868-5.798-22.096-11.325-34.459-16.911-21.524-9.728-43.455-19.639-54.038-31.491-8.969 5.237-16.172 10.228-20.06 14.999-11.026 8.08-23.458 13.993-36.191 17.503-28.453 20.816-119.512 31.85-110.693-3.503-20.445-21.188-40.229-61.561-33.877-102.061-8.543-14.712-13.71-32.715-13.71-50.425 0-40.846 30.996-72.635 93.43-67.705 26.757 0 29.098 36.146 29.098 76.991a85.51 85.51 0 0 1-.239 6.394c2.434 3.088 4.311 6.335 5.485 9.671 2.861 8.131 7.254 17.058 11.819 26.332l1.248 2.537c120.587-36.413 154.348-33.736 164.88-12.799 2.721-8.647 7-15.314 13.725-18.976-.35-4.921-.242-10.057.386-15.378 0-5.948-.121-11.8-.237-17.463v-.004c-.708-34.39-1.273-61.834 26.129-61.834 60.414-5.078 89.683 37.23 89.683 79.301z" clip-rule="evenodd" filter="url(#e)"/>
    <path fill="#623B03" d="M462.876 272.219l-.838-.544-.193.296.037.352.994-.104zm-64.899 114.263l.251-.969-.312-.08-.301.116.362.933zm-53.609 1.046l-.507.862.085.05.093.033.329-.945zm-34.459-16.911l.412-.912-.412.912zm-54.038-31.491l.746-.666-.545-.609-.706.412.505.863zm-20.06 14.999l.591.807.104-.076.081-.099-.776-.632zm-36.191 17.503l-.266-.964-.176.049-.148.108.59.807zm-110.693-3.503l.97.242.134-.537-.384-.399-.72.694zM55.05 266.064l.988.155.055-.351-.178-.306-.865.502zm79.72-118.13l-.079.997.039.003h.04v-1zm28.859 83.385l-.997-.075-.029.388.241.306.785-.619zm5.485 9.671l-.943.332.943-.332zm11.819 26.332l-.898.442.003.005.895-.447zm0 0l.897-.441-.003-.006-.894.447zm1.248 2.537l-.898.441.374.762.813-.245-.289-.958zm164.88-12.799l-.893.449 1.107 2.202.74-2.351-.954-.3zm13.725-18.976l.478.878.565-.308-.046-.641-.997.071zm.386-15.378l.993.117.007-.058v-.059h-1zm-.237-17.463l.999-.021v-.003l-.999.024zm0-.004l-1 .02v.003l1-.023zm26.129-61.834v1h.042l.041-.003-.083-.997zm76.651 129.359c8.76-13.489 14.032-30.975 14.032-50.058h-2c0 18.723-5.174 35.826-13.709 48.969l1.677 1.089zm.543 7.199c0-2.751-.128-5.365-.387-7.847l-1.989.207c.25 2.406.376 4.951.376 7.64h2zm-53.459 109.216c8.348 0 15.858-4.422 22.377-11.501 6.52-7.079 12.136-16.901 16.727-27.942 9.181-22.08 14.355-49.264 14.355-69.773h-2c0 20.241-5.12 47.164-14.202 69.005-4.54 10.92-10.047 20.511-16.351 27.356-6.304 6.844-13.319 10.855-20.906 10.855v2zm-13.072-1.729c4.367 1.131 8.757 1.729 13.072 1.729v-2c-4.13 0-8.352-.573-12.571-1.666l-.501 1.937zm-.112-1.901c-15.935 6.184-34.861 7.307-52.919 1.035l-.657 1.889c18.539 6.439 37.954 5.283 54.3-1.059l-.724-1.865zm-52.741 1.117c-9.923-5.831-22.205-11.38-34.553-16.961l-.823 1.823c12.376 5.593 24.551 11.096 34.363 16.862l1.013-1.724zm-34.553-16.961c-10.77-4.867-21.598-9.761-31.056-14.915-9.47-5.161-17.474-10.536-22.648-16.33l-1.492 1.332c5.409 6.058 13.661 11.564 23.183 16.754 9.535 5.196 20.435 10.122 31.19 14.982l.823-1.823zm-73.734-14.948c3.76-4.616 10.816-9.528 19.788-14.767l-1.009-1.727c-8.966 5.235-16.316 10.304-20.33 15.231l1.551 1.263zm-36.701 17.835c12.847-3.542 25.39-9.507 36.516-17.66l-1.182-1.613c-10.926 8.006-23.248 13.867-35.866 17.345l.532 1.928zm-111.93-4.709c-1.152 4.622-.691 8.585 1.156 11.885 1.835 3.281 4.974 5.79 8.966 7.653 7.958 3.713 19.594 4.991 32.256 4.518 12.692-.473 26.543-2.712 39.011-6.141 12.451-3.423 23.611-8.055 30.866-13.363l-1.181-1.614c-6.972 5.101-17.865 9.654-30.215 13.049-12.331 3.39-26.029 5.603-38.556 6.071-12.558.469-23.811-.822-31.335-4.333-3.75-1.749-6.5-4.015-8.067-6.816-1.556-2.782-2.012-6.207-.96-10.425l-1.94-.484zM54.063 265.909c-6.412 40.885 13.542 81.558 34.145 102.911l1.44-1.389c-20.287-21.024-39.9-61.097-33.609-101.212l-1.976-.31zm-13.723-50.27c0 17.895 5.22 36.07 13.846 50.927l1.73-1.004c-8.459-14.567-13.576-32.397-13.576-49.923h-2zm94.51-68.702c-31.391-2.479-55.025 4.263-70.832 16.902-15.82 12.651-23.678 31.113-23.678 51.8h2c0-20.159 7.64-38.014 22.927-50.238 15.3-12.234 38.381-18.922 69.425-16.47l.158-1.994zm30.019 77.988c0-20.403-.58-39.786-4.552-54.08-1.988-7.156-4.851-13.132-9-17.328-4.179-4.226-9.603-6.583-16.546-6.583v2c6.435 0 11.338 2.161 15.124 5.989 3.815 3.858 6.554 9.471 8.495 16.457 3.888 13.991 4.479 33.103 4.479 53.545h2zm-.242 6.469c.16-2.132.242-4.29.242-6.469h-2c0 2.129-.08 4.237-.236 6.319l1.994.15zm5.431 9.264c-1.216-3.458-3.154-6.801-5.643-9.958l-1.57 1.238c2.379 3.018 4.196 6.17 5.327 9.384l1.886-.664zm11.773 26.223c-4.572-9.29-8.936-18.159-11.773-26.223l-1.886.664c2.884 8.199 7.307 17.183 11.865 26.442l1.794-.883zm-.003-.006l-1.789.894v.001l1.789-.895zm1.251 2.543l-1.248-2.537-1.794.883 1.247 2.536 1.795-.882zm164.876-12.807c-2.74-5.448-7.008-9.713-13.768-12.432-6.72-2.703-15.86-3.861-28.345-3.224-24.963 1.272-63.653 9.739-123.949 27.947l.578 1.915c60.29-18.206 98.775-26.607 123.472-27.865 12.345-.629 21.157.532 27.498 3.082 6.3 2.534 10.202 6.454 12.728 11.475l1.786-.898zm12.354-19.406c-7.04 3.834-11.438 10.775-14.201 19.555l1.908.6c2.68-8.515 6.838-14.907 13.249-18.398l-.956-1.757zm-.129-14.616c-.635 5.382-.745 10.581-.391 15.566l1.995-.142c-.345-4.857-.239-9.931.382-15.19l-1.986-.234zm-.244-17.326c.116 5.665.237 11.507.237 17.443h2c0-5.96-.121-11.822-.238-17.484l-1.999.041zm0-.001v.004l1.999-.047v-.004l-1.999.047zm27.129-62.857c-7.023 0-12.368 1.762-16.377 5.053-3.998 3.281-6.559 7.994-8.19 13.693-3.247 11.338-2.915 26.975-2.562 44.108l1.999-.041c-.355-17.256-.659-32.536 2.485-43.517 1.564-5.461 3.956-9.759 7.537-12.697 3.569-2.93 8.429-4.599 15.108-4.599v-2zm90.683 80.301c0-21.256-7.393-42.615-22.471-58.031-15.1-15.436-37.824-24.828-68.296-22.266l.167 1.993c29.943-2.517 52.06 6.706 66.699 21.672 14.66 14.987 21.901 35.817 21.901 56.632h2z" mask="url(#f)"/>
    <path stroke="#000" stroke-width="8" d="M53.704 265.963C12.037 163.649 93.548 142.864 139.512 145.26c11.116 5.171 31.475 29.438 23.981 85.135 5.87 10.343 17.012 32.465 14.613 38.217"/>
    <path stroke="#000" stroke-width="8" d="M65.695 199.747c-1.624 14.252-2.473 43.665 7.12 47.297 9.617-9.838 34.397-28.227 56.58-23.081M93.423 306.072c-6.495-8.703-17.162-31.784-7.869-54.487M114.032 352.234c9.618 5.423 36.272 10.443 65.948-12.865"/>
    <path stroke="#000" stroke-width="8" d="M52.955 264.071c.874 27.496 8.093 85.741 29.976 98.757 4.247 5.928 11.466 18.465 6.37 21.19-6.37 3.405 59.953 9.459 87.306 0 21.883-7.568 51.835-25.352 64.075-33.298l57.33-49.567c12.49-12.361 41.667-35.038 58.454-26.865l-11.991-20.433-19.859-13.622c-66.822 10.973-201.966 37.006-207.961 53.352"/>
    <path stroke="#000" stroke-width="8" d="M348.973 253.098l14.239-24.973c-2.498-26.991-4.122-80.973 9.367-80.973 16.862 0 83.934-20.811 101.546 54.865 3.247 13.243 5.77 45.935-10.118 70.757-1.373 25.477-9.592 80.67-31.475 97.622-2.748 3.91-7.419 12.032-4.122 13.243 4.122 1.514-82.06 17.405-112.036-9.459l-61.452-32.92M361.338 273.53c10.492 3.28 32.375 11.957 35.972 20.433"/>
    <path stroke="#000" stroke-width="8" d="M390.94 222.828c13.115.504 41.967 6.962 52.459 28.757 6.495-6.811 17.536-26.638 9.742-51.46M425.787 306.449c3.622-4.792 16.862-24.594 7.869-51.838M403.679 351.477c-10.991 5.423-50.959 4.919-62.95-12.108"/>
    <ellipse cx="286.772" cy="111.962" fill="#000" rx="10.867" ry="13.622"/>
    <ellipse cx="212.58" cy="112.718" fill="#000" rx="10.867" ry="13.622"/>
    <ellipse cx="212.58" cy="112.718" fill="#000" rx="10.867" ry="13.622"/>
    <path fill="#000" stroke="#000" d="M274.655 141.475c0 .405-.129.976-.413 1.686-.281.703-.7 1.512-1.248 2.384-1.094 1.744-2.685 3.716-4.656 5.568-3.952 3.714-9.362 6.889-15.29 6.889-5.929 0-11.339-3.175-15.29-6.889-1.971-1.852-3.563-3.824-4.657-5.568-.548-.872-.967-1.681-1.248-2.384-.284-.71-.413-1.281-.413-1.686 0-.751.459-1.468 1.507-2.141 1.049-.673 2.603-1.243 4.58-1.699 3.947-.91 9.431-1.336 15.521-1.336 6.089 0 11.573.426 15.52 1.336 1.977.456 3.531 1.026 4.58 1.699 1.048.673 1.507 1.39 1.507 2.141z"/>
    <path fill="#FFF2F2" stroke="#000" d="M268.66 141.582c0 .516-.324 1.132-1.093 1.796-.758.655-1.883 1.295-3.309 1.858-2.85 1.123-6.814 1.9-11.21 1.9-4.396 0-8.361-.777-11.21-1.9-1.427-.563-2.551-1.203-3.31-1.858-.768-.664-1.092-1.28-1.092-1.796 0-.488.293-.978 1.037-1.459.745-.481 1.86-.894 3.295-1.227 2.861-.664 6.846-.976 11.28-.976 4.434 0 8.418.312 11.28.976 1.435.333 2.55.746 3.295 1.227.744.481 1.037.971 1.037 1.459z"/>
    <path fill="#FFF2F2" stroke="#000" d="M268.66 141.582c0 .516-.324 1.132-1.093 1.796-.758.655-1.883 1.295-3.309 1.858-2.85 1.123-6.814 1.9-11.21 1.9-4.396 0-8.361-.777-11.21-1.9-1.427-.563-2.551-1.203-3.31-1.858-.768-.664-1.092-1.28-1.092-1.796 0-.488.293-.978 1.037-1.459.745-.481 1.86-.894 3.295-1.227 2.861-.664 6.846-.976 11.28-.976 4.434 0 8.418.312 11.28.976 1.435.333 2.55.746 3.295 1.227.744.481 1.037.971 1.037 1.459z"/>
    <mask id="g" fill="#fff">
        <path fill-rule="evenodd" d="M209.145 388.741l-12.302-4.346 5.362 77.803-23.724 8.491 1.125 9.815 19.859-2.649 15.363-7.166-.411-.653 1.326-.111-3.945-39.641-2.653-41.543zm103.804-1.696l-11.939 3.027v41.243l-3.372 39.192 4.336.283-.214.387 7.869 5.165 23.324 4.821 3.393-9.986-23.397-8.65v-75.482z" clip-rule="evenodd"/>
    </mask>
    <path fill="#9E6109" fill-rule="evenodd" d="M209.145 388.741l-12.302-4.346 5.362 77.803-23.724 8.491 1.125 9.815 19.859-2.649 15.363-7.166-.411-.653 1.326-.111-3.945-39.641-2.653-41.543zm103.804-1.696l-11.939 3.027v41.243l-3.372 39.192 4.336.283-.214.387 7.869 5.165 23.324 4.821 3.393-9.986-23.397-8.65v-75.482z" clip-rule="evenodd"/>
    <path fill="#623B03" d="M196.843 384.395l.333-.942-1.436-.507.105 1.518.998-.069zm12.302 4.346l.998-.064-.042-.659-.623-.22-.333.943zm-6.94 73.457l.337.942.713-.255-.052-.755-.998.068zm-23.724 8.491l-.337-.941-.746.267.09.788.993-.114zm1.125 9.815l-.994.114.116 1.012 1.01-.135-.132-.991zm19.859-2.649l.132.991.152-.02.139-.065-.423-.906zm15.363-7.166l.423.907 1.027-.48-.604-.959-.846.532zm-.411-.653l-.084-.997-1.638.138.875 1.391.847-.532zm1.326-.111l.084.996 1.012-.085-.1-1.01-.996.099zm-3.945-39.641l-.998.063.002.018.001.018.995-.099zm89.212-40.212l-.246-.97-.754.192v.778h1zm11.939-3.027h1v-1.286l-1.246.316.246.97zm-11.939 44.27l.997.086.003-.043v-.043h-1zm-3.372 39.192l-.996-.086-.088 1.017 1.019.067.065-.998zm4.336.283l.875.483.761-1.378-1.571-.103-.065.998zm-.214.387l-.875-.484-.448.811.774.509.549-.836zm7.869 5.165l-.549.836.16.104.186.039.203-.979zm23.324 4.821l-.202.979.865.179.284-.837-.947-.321zm3.393-9.986l.947.322.314-.923-.914-.337-.347.938zm-23.397-8.65h-1v.697l.653.241.347-.938zM196.51 385.338l12.302 4.346.666-1.886-12.302-4.345-.666 1.885zm6.693 76.792l-5.363-77.803-1.995.137 5.363 77.803 1.995-.137zm-24.385 9.501l23.724-8.491-.674-1.883-23.724 8.491.674 1.883zm1.781 8.759l-1.124-9.814-1.987.227 1.124 9.815 1.987-.228zm18.734-3.526l-19.86 2.649.265 1.982 19.859-2.649-.264-1.982zm15.072-7.081l-15.363 7.166.846 1.812 15.363-7.165-.846-1.813zm-.835.785l.411.654 1.693-1.065-.411-.654-1.693 1.065zm2.09-1.64l-1.327.111.167 1.993 1.327-.111-.167-1.993zm-4.857-38.545l3.945 39.641 1.991-.198-3.946-39.641-1.99.198zm-2.656-41.579l2.653 41.543 1.996-.127-2.653-41.543-1.996.127zm93.109 2.237l11.938-3.027-.491-1.939-11.939 3.027.492 1.939zm.754 40.274v-41.243h-2v41.243h2zm-3.376 39.278l3.373-39.192-1.993-.172-3.372 39.192 1.992.172zm3.405-.801l-4.336-.283-.13 1.996 4.335.283.131-1.996zm-.941.515l-.213.386 1.75.967.214-.387-1.751-.966zm.113 1.706l7.869 5.165 1.098-1.672-7.869-5.165-1.098 1.672zm8.215 5.308l23.325 4.821.404-1.959-23.324-4.821-.405 1.959zm24.474 4.163l3.393-9.985-1.893-.644-3.394 9.986 1.894.643zm2.793-11.245l-23.398-8.65-.693 1.876 23.398 8.65.693-1.876zm-24.744-83.194v75.482h2v-75.482h-2z" mask="url(#g)"/>
    <path stroke="#000" stroke-width="6" d="M200.214 462.342l-3.747-77.568c5.871 2.144 18.436 4.843 15.738 4.54-3.372-.378.375 60.92 2.623 66.595 1.799 4.541.749 12.487 0 15.892-7.244 3.153-23.606 9.46-31.101 9.46-7.494 0-6.12-7.82-4.496-11.73l20.983-7.189zM313.83 461.815v-75.527c-5.809 2.118-17.13 4.839-14.46 4.54 3.337-.374 2.225 59.026 0 64.633-1.78 4.485-.742 12.334 0 15.699 7.168 3.114 23.359 9.344 30.775 9.344 7.415 0 6.056-7.725 4.449-11.587l-20.764-7.102z"/>
    <path fill="#F90" d="M184.102 38.556l64.45-10.973h34.473l35.597 4.919 7.494 14.378 10.117 9.081 11.99 23.838-92.927-6.054-95.549 6.054 15.362-16.27v-7.568l8.993-17.405z"/>
    <path stroke="#000" stroke-width="5" d="M161.245 80.934c-2.872-4.792 6.97-14.605 13.865-15.513 8.618-1.135 104.917-20.433 165.994 0 2.623 3.027 11.676 16.55 6.37 15.513-79.437-15.513-189.976 0-186.229 0z"/>
    <path stroke="#000" stroke-width="5" d="M175.077 64.243c-2.506-4.37-.688-13.317 5.327-14.145 7.519-1.035 99.373-18.63 152.657 0 0 0 9.112 15.09 4.483 14.145-69.302-14.145-165.736 0-162.467 0z"/>
    <path stroke="#000" stroke-width="5" d="M180.686 48.351c-2.229-3.64 5.187-11.093 10.536-11.783 6.686-.862 80.389-18.071 127.774-2.552 2.035 2.299 10.288 15.122 6.171 14.335-61.63-11.783-147.388 0-144.481 0z"/>
    <path stroke="#000" stroke-width="6" d="M271.468 97.803l32.856-11.791M200.015 87.562l33.374 10.204"/>
    <defs>
        <filter id="b" width="269.443" height="366.838" x="120.372" y="13.583" color-interpolation-filters="sRGB" filterUnits="userSpaceOnUse">
            <feFlood flood-opacity="0" result="BackgroundImageFix"/>
            <feBlend in="SourceGraphic" in2="BackgroundImageFix" result="shape"/>
            <feColorMatrix in="SourceAlpha" result="hardAlpha" values="0 0 0 0 0 0 0 0 0 0 0 0 0 0 0 0 0 0 127 0"/>
            <feOffset dy="4"/>
            <feGaussianBlur stdDeviation="25"/>
            <feComposite in2="hardAlpha" k2="-1" k3="1" operator="arithmetic"/>
            <feColorMatrix values="0 0 0 0 0 0 0 0 0 0 0 0 0 0 0 0 0 0 0.25 0"/>
            <feBlend in2="shape" result="effect1_innerShadow"/>
        </filter>
        <filter id="d" width="147.634" height="153.082" x="185.227" y="176.287" color-interpolation-filters="sRGB" filterUnits="userSpaceOnUse">
            <feFlood flood-opacity="0" result="BackgroundImageFix"/>
            <feBlend in="SourceGraphic" in2="BackgroundImageFix" result="shape"/>
            <feColorMatrix in="SourceAlpha" result="hardAlpha" values="0 0 0 0 0 0 0 0 0 0 0 0 0 0 0 0 0 0 127 0"/>
            <feOffset dy="4"/>
            <feGaussianBlur stdDeviation="25"/>
            <feComposite in2="hardAlpha" k2="-1" k3="1" operator="arithmetic"/>
            <feColorMatrix values="0 0 0 0 0 0 0 0 0 0 0 0 0 0 0 0 0 0 0.25 0"/>
            <feBlend in2="shape" result="effect1_innerShadow"/>
        </filter>
        <filter id="e" width="435.408" height="252.783" x="41.339" y="142.989" color-interpolation-filters="sRGB" filterUnits="userSpaceOnUse">
            <feFlood flood-opacity="0" result="BackgroundImageFix"/>
            <feBlend in="SourceGraphic" in2="BackgroundImageFix" result="shape"/>
            <feColorMatrix in="SourceAlpha" result="hardAlpha" values="0 0 0 0 0 0 0 0 0 0 0 0 0 0 0 0 0 0 127 0"/>
            <feOffset dy="4"/>
            <feGaussianBlur stdDeviation="25"/>
            <feComposite in2="hardAlpha" k2="-1" k3="1" operator="arithmetic"/>
            <feColorMatrix values="0 0 0 0 0 0 0 0 0 0 0 0 0 0 0 0 0 0 0.25 0"/>
            <feBlend in2="shape" result="effect1_innerShadow"/>
        </filter>
    </defs>
</svg>
